<?xml version="1.0" standalone="no"?>
<!DOCTYPE svg PUBLIC "-//W3C//DTD SVG 20010904//EN"
 "http://www.w3.org/TR/2001/REC-SVG-20010904/DTD/svg10.dtd">
<svg version="1.0" xmlns="http://www.w3.org/2000/svg"
 width="150.000000pt" height="150.000000pt" viewBox="0 0 150.000000 150.000000"
 preserveAspectRatio="xMidYMid meet">

<g transform="translate(0.000000,150.000000) scale(0.100000,-0.100000)"
fill="#000000" stroke="none">
<path d="M0 750 l0 -750 750 0 750 0 0 750 0 750 -750 0 -750 0 0 -750z m331
190 c25 -14 25 -40 -1 -40 -11 0 -20 5 -20 10 0 6 -9 10 -19 10 -23 0 -36 -42
-21 -70 13 -24 18 -25 41 -4 12 11 23 13 33 7 14 -8 14 -11 -4 -31 -28 -30
-83 -30 -104 0 -21 29 -20 87 1 110 18 20 64 24 94 8z m101 -12 l15 -22 12 22
c6 12 21 22 31 22 25 0 25 -1 -2 -47 -13 -20 -23 -42 -24 -48 0 -5 -2 -20 -2
-32 -2 -16 -8 -23 -22 -23 -16 0 -20 7 -20 30 0 17 -11 48 -25 70 -31 49 -31
50 -1 50 13 0 30 -10 38 -22z m217 9 c6 -7 10 -27 9 -43 -1 -16 2 -36 6 -45
13 -29 -20 -49 -80 -49 l-54 0 0 75 0 75 54 0 c32 0 58 -5 65 -13z m151 -2 c0
-10 -11 -15 -35 -15 -24 0 -35 -5 -35 -15 0 -8 9 -15 20 -15 11 0 20 -7 20
-15 0 -8 -9 -15 -20 -15 -11 0 -20 -7 -20 -15 0 -10 11 -15 35 -15 24 0 35 -5
35 -15 0 -12 -13 -15 -60 -15 l-60 0 0 75 0 75 60 0 c47 0 60 -3 60 -15z m144
-1 c20 -19 20 -24 1 -52 -12 -16 -13 -27 -5 -41 16 -30 12 -41 -14 -41 -19 0
-26 7 -31 30 -4 17 -11 30 -16 30 -5 0 -9 -13 -9 -30 0 -25 -4 -30 -25 -30
-24 0 -25 2 -25 75 l0 75 54 0 c36 0 60 -5 70 -16z m76 -44 l0 -60 35 0 c24 0
35 -5 35 -15 0 -12 -13 -15 -60 -15 l-60 0 0 75 c0 73 1 75 25 75 24 0 25 -3
25 -60z m140 40 c6 -11 15 -20 20 -20 5 0 12 9 15 20 4 13 15 20 31 20 l25 0
-26 -37 c-16 -24 -25 -51 -25 -75 0 -34 -3 -38 -25 -38 -21 0 -25 5 -25 32 0
17 -11 51 -25 75 l-26 43 25 0 c15 0 30 -8 36 -20z m-766 -225 c-4 -8 -2 -15
4 -15 9 0 25 -40 26 -65 1 -5 5 -13 10 -17 17 -12 15 -39 -2 -36 -9 2 -17 10
-17 18 0 19 -65 15 -81 -6 -12 -15 -34 -19 -34 -6 0 5 3 12 7 16 4 3 8 12 9
19 1 7 8 26 15 42 7 17 11 34 10 39 -3 12 19 26 41 26 11 0 15 -5 12 -15z
m205 6 c7 -5 10 -14 7 -20 -4 -6 -3 -11 3 -11 6 0 10 -20 9 -44 -1 -52 -21
-66 -94 -66 -47 0 -47 1 -30 65 2 6 0 19 -4 30 -13 35 6 55 53 55 23 0 48 -4
56 -9z m119 -27 c12 -20 22 -42 22 -49 0 -24 17 -26 24 -2 10 36 7 47 -11 47
-15 0 -16 2 -3 10 8 5 11 10 5 10 -11 0 16 20 28 20 5 0 5 -4 2 -10 -3 -5 0
-10 7 -11 9 0 10 -2 1 -5 -8 -4 -9 -13 -3 -28 5 -13 4 -29 -2 -40 -8 -14 -7
-21 3 -27 12 -8 12 -11 -1 -19 -20 -13 -53 -13 -45 0 3 6 -1 13 -9 16 -8 3
-20 21 -26 40 -17 49 -29 42 -26 -16 2 -36 0 -50 -10 -50 -17 0 -27 90 -15
145 4 18 40 -2 59 -31z m209 30 c-3 -3 3 -21 14 -40 10 -19 19 -41 19 -49 0
-8 5 -15 10 -15 6 0 10 -9 10 -20 0 -11 -7 -20 -15 -20 -8 0 -15 9 -15 20 0
11 -4 20 -10 20 -5 0 -10 8 -10 18 -1 15 -29 63 -31 51 0 -2 -2 -13 -4 -24 -2
-11 3 -28 12 -37 15 -17 15 -18 -4 -18 -11 0 -26 -7 -33 -15 -7 -8 -19 -15
-27 -15 -12 0 -13 3 -4 14 6 8 11 18 9 22 -1 5 6 24 15 42 10 18 15 37 12 42
-3 5 3 13 12 19 19 11 50 15 40 5z m140 0 c-3 -3 3 -16 14 -28 11 -11 23 -33
26 -48 6 -32 19 -29 25 7 4 17 0 29 -11 35 -11 6 -12 9 -3 10 7 0 11 4 8 9 -3
5 1 12 10 15 22 8 26 8 19 -4 -3 -5 0 -10 7 -10 8 0 9 -3 3 -8 -15 -10 -18
-92 -4 -92 8 0 8 -4 -1 -15 -16 -19 -50 -20 -50 -1 0 8 -6 16 -14 19 -7 3 -16
19 -19 36 -4 17 -11 31 -17 31 -11 0 -14 -18 -11 -67 2 -18 -2 -33 -8 -33 -6
0 -11 7 -11 15 0 8 -5 15 -11 15 -6 0 -8 9 -3 23 8 23 8 30 1 62 -2 11 1 23 7
27 13 9 52 11 43 2z"/>
<path d="M580 905 c0 -10 7 -15 18 -13 21 4 19 22 -2 26 -10 2 -16 -3 -16 -13z"/>
<path d="M580 845 c0 -8 7 -15 15 -15 8 0 15 7 15 15 0 8 -7 15 -15 15 -8 0
-15 -7 -15 -15z"/>
<path d="M870 905 c0 -10 7 -15 18 -13 21 4 19 22 -2 26 -10 2 -16 -3 -16 -13z"/>
<path d="M362 660 c-7 -18 -5 -28 5 -39 24 -23 38 2 20 35 l-16 29 -9 -25z"/>
<path d="M509 681 c8 -5 12 -19 9 -35 -5 -26 3 -38 33 -49 22 -7 36 4 44 34 9
36 -16 59 -63 59 -25 0 -33 -3 -23 -9z"/>
</g>
</svg>
